<svg width="960" height="220" viewBox="0 0 960 220" fill="none" xmlns="http://www.w3.org/2000/svg" role="img" aria-labelledby="title desc">
  <title id="title">Open Security Harness logo</title>
  <desc id="desc">A shield shaped mark with connected nodes next to the Open Security Harness wordmark.</desc>
  <rect width="960" height="220" rx="28" fill="#0B1220"/>
  <rect x="18" y="18" width="924" height="184" rx="22" fill="#111827" stroke="#263244" stroke-width="2"/>
  <g transform="translate(70 38)">
    <path d="M72 0L132 24V70C132 107 109 130 72 146C35 130 12 107 12 70V24L72 0Z" fill="#132033" stroke="#5EEAD4" stroke-width="5"/>
    <path d="M46 75H30C23.4 75 18 69.6 18 63C18 56.4 23.4 51 30 51H47" stroke="#93C5FD" stroke-width="7" stroke-linecap="round"/>
    <path d="M98 51H114C120.6 51 126 56.4 126 63C126 69.6 120.6 75 114 75H97" stroke="#93C5FD" stroke-width="7" stroke-linecap="round"/>
    <path d="M48 102H96" stroke="#5EEAD4" stroke-width="7" stroke-linecap="round"/>
    <circle cx="72" cy="51" r="14" fill="#5EEAD4"/>
    <circle cx="48" cy="102" r="9" fill="#93C5FD"/>
    <circle cx="96" cy="102" r="9" fill="#93C5FD"/>
    <path d="M72 65V93" stroke="#5EEAD4" stroke-width="6" stroke-linecap="round"/>
    <path d="M72 93L48 102" stroke="#93C5FD" stroke-width="5" stroke-linecap="round"/>
    <path d="M72 93L96 102" stroke="#93C5FD" stroke-width="5" stroke-linecap="round"/>
  </g>
  <g transform="translate(240 58)">
    <text x="0" y="50" fill="#F8FAFC" font-family="Inter, ui-sans-serif, system-ui, -apple-system, BlinkMacSystemFont, Segoe UI, sans-serif" font-size="46" font-weight="800">Open Security Harness</text>
    <text x="2" y="94" fill="#AAB7C9" font-family="Inter, ui-sans-serif, system-ui, -apple-system, BlinkMacSystemFont, Segoe UI, sans-serif" font-size="22" font-weight="500">AI-assisted discovery, planning, execution, and reporting</text>
    <g transform="translate(2 122)">
      <rect x="0" y="0" width="74" height="28" rx="14" fill="#0F766E"/>
      <text x="18" y="20" fill="#ECFEFF" font-family="Inter, ui-sans-serif, system-ui, sans-serif" font-size="15" font-weight="800">osh</text>
      <rect x="88" y="0" width="130" height="28" rx="14" fill="#1E3A8A"/>
      <text x="106" y="20" fill="#DBEAFE" font-family="Inter, ui-sans-serif, system-ui, sans-serif" font-size="15" font-weight="700">agent crews</text>
      <rect x="232" y="0" width="158" height="28" rx="14" fill="#334155"/>
      <text x="250" y="20" fill="#E2E8F0" font-family="Inter, ui-sans-serif, system-ui, sans-serif" font-size="15" font-weight="700">Docker tools</text>
    </g>
  </g>
</svg>
